<svg width="1306" height="317" viewBox="0 0 1306 317" fill="none" xmlns="http://www.w3.org/2000/svg">
<path d="M225.739 91.2512C234.57 100.082 241.574 110.565 246.353 122.103C251.132 133.641 253.592 146.007 253.592 158.495C253.592 170.983 251.132 183.349 246.353 194.887C241.574 206.425 234.57 216.908 225.739 225.739L203.212 203.212C209.085 197.34 213.743 190.368 216.921 182.696C220.099 175.023 221.735 166.8 221.735 158.495C221.735 150.19 220.099 141.967 216.921 134.294C213.743 126.622 209.085 119.65 203.212 113.778L225.739 91.2512Z" fill="#FAFAFA"/>
<path d="M94.4215 91.2512C85.5909 100.082 78.5861 110.565 73.807 122.103C69.0279 133.641 66.5682 146.007 66.5682 158.495C66.5682 170.983 69.0279 183.349 73.807 194.887C78.5861 206.425 85.5909 216.908 94.4214 225.739L114.595 205.566C108.413 199.384 103.51 192.046 100.164 183.969C96.8191 175.893 95.0973 167.237 95.0973 158.495C95.0973 149.753 96.8191 141.097 100.164 133.021C103.51 124.944 108.413 117.606 114.595 111.424L94.4215 91.2512Z" fill="#FAFAFA"/>
<circle cx="160.08" cy="156.91" r="26.9442" fill="#FAFAFA"/>
<path d="M270.568 46.4221C285.286 61.1398 296.96 78.6121 304.926 97.8417C312.891 117.071 316.99 137.681 316.99 158.495C316.99 179.309 312.891 199.919 304.926 219.149C296.96 238.378 285.286 255.851 270.568 270.568L248.154 248.154C259.928 236.379 269.267 222.402 275.639 207.018C282.012 191.634 285.291 175.146 285.291 158.495C285.291 141.844 282.012 125.356 275.639 109.972C269.267 94.5887 259.928 80.6108 248.154 68.8367L270.568 46.4221Z" fill="#FAFAFA"/>
<path d="M46.4222 46.4221C31.7045 61.1398 20.0298 78.6121 12.0647 97.8417C4.09961 117.071 0 137.681 0 158.495C0 179.309 4.09961 199.919 12.0647 219.149C20.0298 238.378 31.7045 255.851 46.4221 270.568L68.2474 248.743C56.3959 236.891 46.9948 222.822 40.5808 207.337C34.1668 191.852 30.8656 175.256 30.8656 158.495C30.8656 141.735 34.1668 125.138 40.5808 109.653C46.9948 94.1687 56.3959 80.0989 68.2474 68.2474L46.4222 46.4221Z" fill="#FAFAFA"/>
<path d="M394.653 158.738V47.7917H426.035V133.855H478.973V158.738H394.653ZM491.391 158.738V47.7917H522.773V158.738H491.391ZM578.867 158.738L531.477 47.7917H565.394L605.335 143.84H585.365L626.257 47.7917H657.322L609.773 158.738H578.867ZM692.662 90.7439H744.173V114.201H692.662V90.7439ZM694.881 134.489H752.891V158.738H663.816V47.7917H750.83V72.0414H694.881V134.489ZM816.43 158.738V47.7917H868.892C881.149 47.7917 891.926 50.0634 901.225 54.607C910.523 59.1505 917.761 65.5431 922.938 73.7849C928.222 82.0266 930.863 91.8533 930.863 103.265C930.863 114.571 928.222 124.398 922.938 132.745C917.761 140.987 910.523 147.379 901.225 151.923C891.926 156.467 881.149 158.738 868.892 158.738H816.43ZM847.812 133.696H867.624C873.963 133.696 879.458 132.534 884.107 130.209C888.862 127.779 892.56 124.292 895.202 119.748C897.843 115.099 899.164 109.605 899.164 103.265C899.164 96.8195 897.843 91.325 895.202 86.7815C892.56 82.238 888.862 78.8039 884.107 76.4793C879.458 74.049 873.963 72.8339 867.624 72.8339H847.812V133.696ZM932.513 158.738L981.488 47.7917H1012.39L1061.53 158.738H1028.88L990.522 63.1657H1002.88L964.529 158.738H932.513ZM959.298 137.183L967.381 114.043H1021.59L1029.67 137.183H959.298ZM1088.47 158.738V72.6754H1054.39V47.7917H1153.77V72.6754H1119.85V158.738H1088.47ZM1146.57 158.738L1195.55 47.7917H1226.46L1275.59 158.738H1242.94L1204.58 63.1657H1216.95L1178.59 158.738H1146.57ZM1173.36 137.183L1181.44 114.043H1235.65L1243.73 137.183H1173.36Z" fill="#FAFAFA"/>
<path d="M418.503 268.044V204.455H393.499V192.6H457.518V204.455H432.514V268.044H418.503ZM480.966 223.963H518.473V235.495H480.966V223.963ZM482.044 256.296H524.616V268.044H468.033V192.6H523.107V204.348H482.044V256.296ZM575.155 269.121C569.407 269.121 564.054 268.187 559.096 266.319C554.21 264.379 549.935 261.685 546.271 258.236C542.678 254.715 539.876 250.584 537.864 245.842C535.852 241.1 534.846 235.926 534.846 230.322C534.846 224.717 535.852 219.544 537.864 214.802C539.876 210.06 542.714 205.964 546.378 202.515C550.043 198.995 554.318 196.3 559.204 194.432C564.09 192.492 569.443 191.522 575.263 191.522C581.442 191.522 587.082 192.6 592.184 194.756C597.285 196.839 601.596 199.965 605.117 204.132L596.063 212.646C593.333 209.701 590.279 207.509 586.902 206.072C583.525 204.563 579.861 203.809 575.909 203.809C571.957 203.809 568.329 204.455 565.024 205.749C561.79 207.042 558.952 208.874 556.509 211.245C554.138 213.616 552.27 216.419 550.905 219.652C549.612 222.885 548.965 226.442 548.965 230.322C548.965 234.202 549.612 237.758 550.905 240.992C552.27 244.225 554.138 247.027 556.509 249.398C558.952 251.769 561.79 253.602 565.024 254.895C568.329 256.188 571.957 256.835 575.909 256.835C579.861 256.835 583.525 256.116 586.902 254.679C590.279 253.171 593.333 250.907 596.063 247.889L605.117 256.512C601.596 260.607 597.285 263.733 592.184 265.888C587.082 268.044 581.406 269.121 575.155 269.121ZM671.568 192.6H685.579V268.044H671.568V192.6ZM632.553 268.044H618.542V192.6H632.553V268.044ZM672.646 235.711H631.367V223.747H672.646V235.711ZM705.794 268.044V192.6H717.327L764.641 250.692H758.928V192.6H772.832V268.044H761.299L713.985 209.952H719.698V268.044H705.794ZM828.398 269.121C822.506 269.121 817.081 268.151 812.124 266.211C807.166 264.272 802.855 261.577 799.191 258.128C795.526 254.608 792.688 250.512 790.676 245.842C788.664 241.1 787.658 235.926 787.658 230.322C787.658 224.717 788.664 219.58 790.676 214.91C792.688 210.168 795.526 206.072 799.191 202.623C802.855 199.103 807.166 196.372 812.124 194.432C817.081 192.492 822.47 191.522 828.29 191.522C834.182 191.522 839.571 192.492 844.457 194.432C849.414 196.372 853.726 199.103 857.39 202.623C861.054 206.072 863.892 210.168 865.904 214.91C867.916 219.58 868.922 224.717 868.922 230.322C868.922 235.926 867.916 241.1 865.904 245.842C863.892 250.584 861.054 254.679 857.39 258.128C853.726 261.577 849.414 264.272 844.457 266.211C839.571 268.151 834.218 269.121 828.398 269.121ZM828.29 256.835C832.098 256.835 835.619 256.188 838.852 254.895C842.086 253.602 844.888 251.769 847.259 249.398C849.63 246.955 851.462 244.153 852.756 240.992C854.121 237.758 854.803 234.202 854.803 230.322C854.803 226.442 854.121 222.921 852.756 219.76C851.462 216.526 849.63 213.724 847.259 211.353C844.888 208.91 842.086 207.042 838.852 205.749C835.619 204.455 832.098 203.809 828.29 203.809C824.482 203.809 820.961 204.455 817.728 205.749C814.567 207.042 811.764 208.91 809.322 211.353C806.95 213.724 805.082 216.526 803.717 219.76C802.424 222.921 801.777 226.442 801.777 230.322C801.777 234.13 802.424 237.651 803.717 240.884C805.082 244.117 806.95 246.955 809.322 249.398C811.693 251.769 814.495 253.602 817.728 254.895C820.961 256.188 824.482 256.835 828.29 256.835ZM883.773 268.044V192.6H897.784V256.188H937.231V268.044H883.773ZM982.274 269.121C976.383 269.121 970.958 268.151 966 266.211C961.042 264.272 956.731 261.577 953.067 258.128C949.403 254.608 946.564 250.512 944.553 245.842C942.541 241.1 941.535 235.926 941.535 230.322C941.535 224.717 942.541 219.58 944.553 214.91C946.564 210.168 949.403 206.072 953.067 202.623C956.731 199.103 961.042 196.372 966 194.432C970.958 192.492 976.347 191.522 982.167 191.522C988.059 191.522 993.447 192.492 998.333 194.432C1003.29 196.372 1007.6 199.103 1011.27 202.623C1014.93 206.072 1017.77 210.168 1019.78 214.91C1021.79 219.58 1022.8 224.717 1022.8 230.322C1022.8 235.926 1021.79 241.1 1019.78 245.842C1017.77 250.584 1014.93 254.679 1011.27 258.128C1007.6 261.577 1003.29 264.272 998.333 266.211C993.447 268.151 988.094 269.121 982.274 269.121ZM982.167 256.835C985.975 256.835 989.496 256.188 992.729 254.895C995.962 253.602 998.764 251.769 1001.14 249.398C1003.51 246.955 1005.34 244.153 1006.63 240.992C1008 237.758 1008.68 234.202 1008.68 230.322C1008.68 226.442 1008 222.921 1006.63 219.76C1005.34 216.526 1003.51 213.724 1001.14 211.353C998.764 208.91 995.962 207.042 992.729 205.749C989.496 204.455 985.975 203.809 982.167 203.809C978.359 203.809 974.838 204.455 971.605 205.749C968.443 207.042 965.641 208.91 963.198 211.353C960.827 213.724 958.959 216.526 957.594 219.76C956.3 222.921 955.654 226.442 955.654 230.322C955.654 234.13 956.3 237.651 957.594 240.884C958.959 244.117 960.827 246.955 963.198 249.398C965.569 251.769 968.371 253.602 971.605 254.895C974.838 256.188 978.359 256.835 982.167 256.835ZM1072.89 269.121C1067 269.121 1061.58 268.187 1056.62 266.319C1051.73 264.379 1047.46 261.685 1043.79 258.236C1040.13 254.715 1037.29 250.584 1035.28 245.842C1033.27 241.1 1032.26 235.926 1032.26 230.322C1032.26 224.717 1033.27 219.544 1035.28 214.802C1037.29 210.06 1040.13 205.964 1043.79 202.515C1047.53 198.995 1051.88 196.3 1056.83 194.432C1061.79 192.492 1067.22 191.522 1073.11 191.522C1079.5 191.522 1085.25 192.564 1090.35 194.648C1095.53 196.731 1099.87 199.785 1103.39 203.809L1094.56 212.431C1091.61 209.485 1088.41 207.329 1084.96 205.964C1081.59 204.527 1077.85 203.809 1073.76 203.809C1069.8 203.809 1066.14 204.455 1062.76 205.749C1059.38 207.042 1056.47 208.874 1054.03 211.245C1051.59 213.616 1049.68 216.419 1048.32 219.652C1047.03 222.885 1046.38 226.442 1046.38 230.322C1046.38 234.13 1047.03 237.651 1048.32 240.884C1049.68 244.117 1051.59 246.955 1054.03 249.398C1056.47 251.769 1059.35 253.602 1062.65 254.895C1065.96 256.188 1069.62 256.835 1073.65 256.835C1077.38 256.835 1080.98 256.26 1084.42 255.11C1087.95 253.889 1091.29 251.877 1094.45 249.075L1102.42 259.529C1098.47 262.691 1093.87 265.098 1088.63 266.75C1083.45 268.331 1078.21 269.121 1072.89 269.121ZM1089.17 257.697V229.46H1102.42V259.529L1089.17 257.697ZM1120.9 268.044V192.6H1134.91V268.044H1120.9ZM1168.25 223.963H1205.76V235.495H1168.25V223.963ZM1169.33 256.296H1211.9V268.044H1155.32V192.6H1210.39V204.348H1169.33V256.296ZM1250.91 269.121C1245.02 269.121 1239.38 268.295 1233.99 266.643C1228.6 264.918 1224.32 262.727 1221.16 260.068L1226.01 249.183C1229.03 251.554 1232.77 253.53 1237.22 255.11C1241.68 256.691 1246.24 257.482 1250.91 257.482C1254.86 257.482 1258.06 257.05 1260.5 256.188C1262.94 255.326 1264.74 254.176 1265.89 252.739C1267.04 251.231 1267.61 249.542 1267.61 247.674C1267.61 245.375 1266.79 243.542 1265.14 242.177C1263.48 240.74 1261.33 239.627 1258.67 238.836C1256.08 237.974 1253.17 237.184 1249.94 236.465C1246.78 235.747 1243.58 234.92 1240.35 233.986C1237.19 232.98 1234.28 231.723 1231.62 230.214C1229.03 228.633 1226.91 226.55 1225.26 223.963C1223.61 221.376 1222.78 218.071 1222.78 214.048C1222.78 209.952 1223.86 206.216 1226.01 202.839C1228.24 199.39 1231.58 196.66 1236.04 194.648C1240.56 192.564 1246.28 191.522 1253.17 191.522C1257.7 191.522 1262.19 192.097 1266.65 193.247C1271.1 194.396 1274.98 196.049 1278.28 198.204L1273.87 209.09C1270.49 207.078 1267 205.605 1263.41 204.671C1259.82 203.665 1256.37 203.162 1253.07 203.162C1249.19 203.162 1246.02 203.629 1243.58 204.563C1241.21 205.497 1239.45 206.719 1238.3 208.228C1237.22 209.737 1236.68 211.461 1236.68 213.401C1236.68 215.7 1237.47 217.568 1239.05 219.005C1240.71 220.37 1242.83 221.448 1245.41 222.239C1248.07 223.029 1251.02 223.819 1254.25 224.61C1257.48 225.328 1260.68 226.154 1263.84 227.089C1267.08 228.023 1269.99 229.244 1272.57 230.753C1275.23 232.262 1277.35 234.31 1278.93 236.896C1280.58 239.483 1281.41 242.752 1281.41 246.704C1281.41 250.728 1280.3 254.464 1278.07 257.913C1275.91 261.29 1272.57 264.02 1268.05 266.104C1263.52 268.116 1257.81 269.121 1250.91 269.121Z" fill="#FAFAFA"/>
</svg>
